<svg id="BACKGROUND_1" data-name="BACKGROUND 1" xmlns="http://www.w3.org/2000/svg" viewBox="0 0 204.89 21"><defs><style>.cls-1{fill:#fff;}</style></defs><title>frozelli-food-fun-maschinen-icon-welle-white</title><path class="cls-1" d="M349,253.5c-4.61,0-6.87-2.57-9.74-5.82-3.22-3.64-7.22-8.18-15-8.18s-11.76,4.54-15,8.18c-2.87,3.25-5.14,5.82-9.74,5.82s-6.86-2.57-9.73-5.82c-3.22-3.64-7.22-8.18-15-8.18h-.18c-7.75,0-11.76,4.54-15,8.18-2.85,3.23-5.1,5.78-9.64,5.82s-6.79-2.59-9.64-5.82c-3.22-3.64-7.23-8.18-15-8.18h-.18c-7.76,0-11.76,4.54-15,8.18-2.87,3.25-5.13,5.82-9.73,5.82s-6.87-2.57-9.74-5.82c-3.22-3.64-7.22-8.18-15-8.18s-11.76,4.54-15,8.18c-2.87,3.25-5.13,5.82-9.74,5.82a3.5,3.5,0,0,0,0,7c7.76,0,11.77-4.54,15-8.18,2.87-3.25,5.13-5.82,9.73-5.82s6.87,2.57,9.73,5.82c3.22,3.64,7.23,8.18,15,8.18s11.76-4.54,15-8.18c2.87-3.25,5.13-5.82,9.73-5.82s6.86,2.57,9.73,5.82c3.22,3.64,7.22,8.18,15,8.18h.18c7.76,0,11.76-4.54,15-8.18,2.87-3.25,5.13-5.82,9.73-5.82s6.86,2.57,9.73,5.82c3.22,3.64,7.22,8.18,15,8.18s11.77-4.54,15-8.18c2.86-3.25,5.13-5.82,9.73-5.82s6.86,2.57,9.73,5.82c3.22,3.64,7.23,8.18,15,8.18a3.5,3.5,0,1,0,0-7Z" transform="translate(-147.55 -239.5)"/></svg>