<svg id="Ebene_1" data-name="Ebene 1" xmlns="http://www.w3.org/2000/svg" viewBox="0 0 445.23 128.41"><defs><style>.cls-1{opacity:0.25;}.cls-2{fill:#df3273;}</style></defs><title>frozelli-fun-food-maschinen-script-hochzeit</title><g class="cls-1"><path class="cls-2" d="M408.93,360.94a5.13,5.13,0,0,1-2.7,1.78,12.63,12.63,0,0,1-3,.4,12.91,12.91,0,0,1-3.47-.49c-.1-.48-.21-.92-.32-1.33s-.21-.81-.32-1.25a45.47,45.47,0,0,1-1.41-5.48,30,30,0,0,1-.53-5.64,25,25,0,0,0-.16-2.83c-.1-1-.19-1.93-.24-2.9-.11-1.56-.17-3.1-.2-4.64s-.07-3.07-.12-4.63q-.17-4.2-.28-8.35t-.12-8.34c0-2.31,0-4.6.08-6.86s.1-4.51.16-6.77c0-.32,0-.66,0-1s0-.74,0-1.17H366.83c.06,1,.1,1.92.13,2.86s.09,1.9.2,2.87c.1,1.88.2,3.79.28,5.72s.17,3.85.28,5.73.24,3.75.4,5.6.3,3.72.41,5.61q.48,5.64.68,11.24a92,92,0,0,1-.28,11.25,41.88,41.88,0,0,1-.64,5.12,20.86,20.86,0,0,1-1.62,5,3.79,3.79,0,0,1-1.21,1.49,2.19,2.19,0,0,1-1.77.45,1.62,1.62,0,0,1-.77-.41c-.24-.21-.47-.42-.68-.64a13,13,0,0,1-2.9-5.08,37.68,37.68,0,0,1-1.21-5.64c-.43-4-.85-8-1.25-11.94s-.82-7.9-1.25-11.93q-1.22-11.7-1.46-23.63c0-1.4,0-2.81-.08-4.23s0-2.84,0-4.24q.09-6.52.49-13.22c.11-2.42.25-4.8.44-7.14s.34-4.69.44-7.05c.11-1.4.19-2.79.25-4.16a27.08,27.08,0,0,1,.48-4.15,7.06,7.06,0,0,1,.61-2.06,11.37,11.37,0,0,1,1.08-1.81,1.08,1.08,0,0,1,.41-.36,3.26,3.26,0,0,1,.48-.2c.65,0,1.28,0,1.9,0a3.25,3.25,0,0,1,1.81.68.7.7,0,0,0,.44.2,1.42,1.42,0,0,1,.53.2,4,4,0,0,1,1.21,1,8,8,0,0,1,1,1.53,10.76,10.76,0,0,1,.64,1.78,4.7,4.7,0,0,1,.16,1.65,22.21,22.21,0,0,0,0,2.58c.05.86.08,1.75.08,2.66v5.77c0,1.91,0,3.83.08,5.76,0,2.75,0,5.49,0,8.23s.07,5.48.12,8.22a1.86,1.86,0,0,0,0,.33,1.17,1.17,0,0,1,0,.32l7.38-.48c2.45-.17,4.88-.3,7.3-.41s4.93-.13,7.38-.08,5,.08,7.54.08c.05-.75.11-1.46.16-2.13s.08-1.34.08-2c.11-2.9.2-5.77.28-8.59s.2-5.66.37-8.51q.15-3.3.44-6.57a48.07,48.07,0,0,1,1-6.49,19.11,19.11,0,0,1,.84-2.7c.35-.89.74-1.76,1.17-2.62a2.19,2.19,0,0,1,1.62-1.17,2.44,2.44,0,0,1,2.09.36,9.74,9.74,0,0,1,2.14,2,6.41,6.41,0,0,1,1.17,2.7,76.82,76.82,0,0,1,1,8.06c.18,2.69.36,5.41.52,8.15.11,1.72.2,3.42.28,5.12s.15,3.4.2,5.12.17,3.47.17,5.24,0,3.52.08,5.24q.15,3.15.24,6.25c.05,2.07.11,4.15.16,6.25.11,2.47.2,4.95.28,7.42s.18,4.95.28,7.42c.11,1.88.21,3.77.29,5.68s.17,3.81.28,5.69q.17,4.51.12,9t-.44,9a16.29,16.29,0,0,1-.69,3.51A9,9,0,0,1,408.93,360.94Z" transform="translate(-354.05 -243.73)"/><path class="cls-2" d="M471.9,323q-.07,3.87-.24,6.9a30.25,30.25,0,0,1-.88,5.84c-.44,1.62-.89,3.22-1.38,4.8a32.7,32.7,0,0,1-1.85,4.72q-1.12,2.18-2.34,4.27t-2.42,4.19a17,17,0,0,1-3.06,3.71,39.13,39.13,0,0,1-3.71,3,.82.82,0,0,1-.28.2.84.84,0,0,0-.29.2,12,12,0,0,1-5.64,2.86,31.87,31.87,0,0,1-6.29.61,14.15,14.15,0,0,1-2.74-.28c-.92-.19-1.83-.37-2.74-.53A23,23,0,0,1,426.71,358a29.84,29.84,0,0,1-7.14-10.24,39.11,39.11,0,0,1-3.14-11.05,50.89,50.89,0,0,1-.17-11.45,73.11,73.11,0,0,1,1.3-8.55,67.07,67.07,0,0,1,2.33-8.3A54.63,54.63,0,0,1,425.3,297a41.57,41.57,0,0,1,8.3-9.56,24.86,24.86,0,0,1,15.4-6.05,14.23,14.23,0,0,1,7.38,1.41,18.37,18.37,0,0,1,5.85,4.8,28.69,28.69,0,0,1,4.47,7.78,71,71,0,0,1,2.62,8.51,52.4,52.4,0,0,1,1,5.32q.36,2.67.77,5.41c.27,1.56.49,3.09.68,4.59A16.75,16.75,0,0,1,471.9,323Zm-38.3,8a31,31,0,0,0,1,6.74A25,25,0,0,0,438,345.3a16.33,16.33,0,0,0,6.25,5.72,15.37,15.37,0,0,0,8.42,1.45,9.44,9.44,0,0,0,2.18-.56c.7-.27,1.4-.56,2.1-.89a8,8,0,0,0,3.26-2.9q1.17-1.86,2.22-3.87a26.57,26.57,0,0,0,2.26-6.77q.64-3.47,1-7a59.12,59.12,0,0,0,.32-6,28.11,28.11,0,0,0-.65-6q-.4-2.1-.72-4.2c-.22-1.4-.49-2.79-.81-4.19q-.64-3-1.57-5.89a26.79,26.79,0,0,0-5.85-9.84,13.2,13.2,0,0,0-4.59-3.06,5.09,5.09,0,0,0-6.94,2A48.44,48.44,0,0,0,438,305.62a70.56,70.56,0,0,0-3.19,11.82A89.42,89.42,0,0,0,433.6,331Z" transform="translate(-354.05 -243.73)"/><path class="cls-2" d="M526.25,299.58a9.14,9.14,0,0,1-1.41.16,2,2,0,0,1-.84-.16,1.42,1.42,0,0,1-.57-.57c-.16-.27-.38-.67-.64-1.21a5.54,5.54,0,0,0-.33-.56q-1.94-1.77-4-3.39a12.28,12.28,0,0,0-4.63-2.26,6.69,6.69,0,0,0-1.74-.24c-.56,0-1.14,0-1.73-.08a10,10,0,0,0-1.33.12,14.18,14.18,0,0,0-1.74.36c-.59.17-1.13.34-1.61.53a2.31,2.31,0,0,0-1,.6A100.54,100.54,0,0,0,498.47,303a36.81,36.81,0,0,0-3.83,11.21,103.47,103.47,0,0,0-1.49,10.93,56.28,56.28,0,0,0,.2,11q.33,2.91.69,5.65a9.18,9.18,0,0,0,2.38,5c.59.7,1.13,1.32,1.61,1.85a17.22,17.22,0,0,0,1.77,1.7,3.06,3.06,0,0,0,1.46.44,19.73,19.73,0,0,0,2.25.12,15.29,15.29,0,0,0,2.3-.16,4.56,4.56,0,0,0,1.49-.4,11.82,11.82,0,0,0,2.95-2.38,25.67,25.67,0,0,0,2.3-3,17.8,17.8,0,0,0,1.29-2.41q.55-1.29,1.2-2.58c.43-.92.86-1.82,1.29-2.71a7.49,7.49,0,0,1,1.86-2.38,2.16,2.16,0,0,1,1.85-.52,1.68,1.68,0,0,1,1.29,1.33,8.51,8.51,0,0,1,.41,2,4.79,4.79,0,0,1-.32,2c-.6,1.89-1.21,3.74-1.86,5.57a37.51,37.51,0,0,1-2.34,5.32,34.45,34.45,0,0,1-3.55,5.32,23.4,23.4,0,0,1-4.59,4.36q-6.21,4.59-12.54,4.27t-12.06-5.81a25.3,25.3,0,0,1-6.13-8.71,38.47,38.47,0,0,1-2.66-10.4,53.75,53.75,0,0,1-.08-12.09,101.26,101.26,0,0,1,2-11.94q1-4.35,2.38-8.54a53.87,53.87,0,0,1,3.34-8.15A37.35,37.35,0,0,1,492,287.56a26.32,26.32,0,0,1,12.86-5.89,13.06,13.06,0,0,1,3.39-.2c1.18.08,2.34.2,3.47.37a28.49,28.49,0,0,1,5.64,1.37,16.46,16.46,0,0,1,5.08,2.9l2.46,2.3a9,9,0,0,1,2,2.62,10.25,10.25,0,0,1,1,4.31A6.69,6.69,0,0,1,526.25,299.58Z" transform="translate(-354.05 -243.73)"/><path class="cls-2" d="M550.69,338.36c.1-1.07.24-2.15.4-3.22s.29-2.15.4-3.23q.4-3.14.69-6.29t.76-6.29q.57-3.3,1.17-6.57t1.41-6.57a69.76,69.76,0,0,1,2.14-6.94,40.2,40.2,0,0,1,3.11-6.53c.8-1.34,1.62-2.65,2.46-3.91a15.62,15.62,0,0,1,3.1-3.43c.43-.37.87-.73,1.33-1.08a12.24,12.24,0,0,1,1.41-.93,3.7,3.7,0,0,1,1.86-.61,7.88,7.88,0,0,1,2,.2,13.5,13.5,0,0,1,3.35,1.25,27.83,27.83,0,0,1,3,1.9c.43.22.67.4.73.56.59,1,1.17,2,1.73,3a13.84,13.84,0,0,1,1.33,3.06,33.7,33.7,0,0,1,1,4.2c.24,1.39.5,2.82.77,4.27a15.68,15.68,0,0,1,.28,2.5,11.51,11.51,0,0,0,.36,2.5,15.62,15.62,0,0,1,.36,5.36,21.35,21.35,0,0,0,.13,5.36,1.92,1.92,0,0,1,0,1,4.34,4.34,0,0,0-.13,1.09c.06,1.24.1,2.5.13,3.79s.09,2.55.2,3.79q.24,3.06.56,6.21c.22,2.1.43,4.17.65,6.21s.31,4.1.44,6.17.34,4.12.6,6.17a10.05,10.05,0,0,0,.57,2.17c.27.7.51,1.43.73,2.18a7.42,7.42,0,0,1,.24,1.94,8.69,8.69,0,0,1-.81,3.7,2.11,2.11,0,0,1-2.74,1.54,13,13,0,0,1-8.79-7,50.86,50.86,0,0,1-3.75-10,64,64,0,0,1-1.81-10.44q-.66-6.52-.85-13.06t.2-13.07a65.43,65.43,0,0,0,0-7.54c-.13-2.5-.26-5-.36-7.54a1.53,1.53,0,0,0-.12-.6,7.15,7.15,0,0,1-.29-.93l-1.33,2.1a14.83,14.83,0,0,0-1,1.85q-1.7,3.56-3,7.14a51.68,51.68,0,0,0-2.13,7.46,27.18,27.18,0,0,1-.65,2.74c-.27.92-.51,1.83-.73,2.74-.27,1.08-.49,2.18-.68,3.31s-.39,2.23-.61,3.3q-.89,4.13-1.45,8.23-.64,3.8-1.09,7.54c-.29,2.5-.63,5-1,7.54-.22,1.45-.47,2.87-.77,4.27a27.87,27.87,0,0,1-1.25,4.2,9.39,9.39,0,0,1-2.1,3.34q-1.37,1.41-2.82,2.7a10.36,10.36,0,0,1-2,1.41q-1.1.62-2.22,1.17a3.34,3.34,0,0,1-2.54.37,4.52,4.52,0,0,1-2-1.74,22.19,22.19,0,0,1-1.93-3.55,15.53,15.53,0,0,1-1.13-3.87c-.27-1.72-.49-3.41-.65-5.08s-.35-3.35-.56-5.08c-.11-1.18-.24-2.36-.4-3.54s-.33-2.37-.49-3.55q-.72-6-1.25-11.86t-.6-11.93q-.17-9.6-.24-19.11T534,275.71q-.07-6.85,0-13.63t.08-13.63a4.39,4.39,0,0,1,.93-2.74,3.81,3.81,0,0,1,2.62-1.45,5.94,5.94,0,0,1,4.28,1.13,6,6,0,0,1,2.13,2.34,14.42,14.42,0,0,1,1.09,3,29.94,29.94,0,0,1,.85,6q.12,3,.28,6c0,1.83.13,3.63.24,5.41l.33,5.32c0,1,.08,2,.08,3s0,2,.08,3,.09,1.93.12,2.9.09,1.93.2,2.9c.11,1.67.23,3.32.36,5s.28,3.3.45,5a44.38,44.38,0,0,1,.28,6.69c-.08,2.21-.18,4.44-.28,6.7a14.8,14.8,0,0,0,.08,2.74c.1.91.21,1.83.32,2.74s.11,2,.16,3.06.13,2.07.24,3.15q.17,2.17.24,4.35c.06,1.46.14,2.93.25,4.44.1,1.34.2,2.66.28,3.95s.17,2.61.28,4c0,.27.11.53.16.77s.11.5.16.76A.86.86,0,0,0,550.69,338.36Z" transform="translate(-354.05 -243.73)"/><path class="cls-2" d="M646.88,296.92h-7c-.75,0-1.52,0-2.3,0s-1.54,0-2.3,0c-3.17-.17-6.33-.31-9.47-.45s-6.33-.33-9.56-.6c-1.72-.11-3.45-.3-5.2-.57l-5.2-.8a5.51,5.51,0,0,1-3.75-2.1,15.84,15.84,0,0,1-2.05-3.79c-.27-.65-.33-1.1-.17-1.37a3.06,3.06,0,0,1,1.13-.89,14.19,14.19,0,0,1,3.11-1.21,21.61,21.61,0,0,1,3.18-.56c2.74-.27,5.45-.57,8.11-.89l8.1-1c.81-.1,1.6-.18,2.38-.24l2.38-.16q5.24-.24,10.4-.44l10.4-.45,5.08-.16c1.67,0,3.36-.08,5.08-.08a16.49,16.49,0,0,1,2.22.32l2.22.49c1.07.27,2.12.58,3.14.92s2.07.69,3.15,1a3.31,3.31,0,0,1,1.17.69,8.77,8.77,0,0,1,1.13,1.21,10.51,10.51,0,0,1,.88,1.37,2.52,2.52,0,0,1,.37,1.17,2.13,2.13,0,0,1-1,2,9.65,9.65,0,0,0-2.74,2.22c-.76.89-1.51,1.79-2.26,2.7q-1.62,2-3.27,4t-3.42,3.83c-1.56,1.73-3.16,3.39-4.8,5s-3.27,3.23-4.88,4.84c-.27.27-.51.53-.73.77l-.8.93c2.74.37,5.43.75,8.06,1.12a26.49,26.49,0,0,1,7.66,2.34.72.72,0,0,1-.4,1.13c-.43.22-.89.42-1.37.61a10.13,10.13,0,0,1-1.46.44,29.62,29.62,0,0,1-7,1.25c-2.34.13-4.72.23-7.14.28-.53.06-1.07.12-1.61.2a4.58,4.58,0,0,1-1.61,0,4.52,4.52,0,0,0-2.7.45,8.7,8.7,0,0,0-2.14,1.73q-3.47,3.7-7,7.3T626,338.85q-3.22,3.63-6.17,7.38c-2,2.49-4,5-6,7.53a3.4,3.4,0,0,0-.64.89c-.16.32-.38.7-.65,1.13a4.93,4.93,0,0,0,1.13-.08c3.12-1.08,6.24-2.16,9.36-3.27a91.67,91.67,0,0,1,9.51-2.78c1.83-.43,3.64-.93,5.45-1.49s3.64-1.09,5.52-1.57q3.39-.88,6.81-1.7a34.36,34.36,0,0,1,7.06-.88,27.07,27.07,0,0,1,3.71.08l3.71.32a2.06,2.06,0,0,1,.52.08l.52.16c.54.16,1,.3,1.25.41a1.18,1.18,0,0,1,.65.48,1.52,1.52,0,0,1,.2.81c0,.32,0,.8-.08,1.45a11.43,11.43,0,0,0-2,1.85,6,6,0,0,1-1.73,1.21c-.67.32-1.33.62-2,.89a10.12,10.12,0,0,1-2,.44c-.7.08-1.4.18-2.1.28a37.77,37.77,0,0,0-5.4.89l-5.24,1.29q-5.4,1.38-10.77,2.7l-10.76,2.7q-1.12.33-2.22.69l-2.22.77a64,64,0,0,1-7,1.81,37.37,37.37,0,0,1-7.22.69c-.75,0-1.53,0-2.34.08a12.11,12.11,0,0,1-2.34-.08,8,8,0,0,1-2.05-.61q-1-.43-2-.93a3.41,3.41,0,0,1-1.65-1.73,7.32,7.32,0,0,1-.52-2.38,11.85,11.85,0,0,1,.72-4.6q.81-2.17,1.78-4.27a46.71,46.71,0,0,1,5-8.55q3-3.94,6.17-7.82c1.13-1.4,2.29-2.75,3.47-4.07s2.39-2.65,3.63-4l.48-.65a7.51,7.51,0,0,1,.65-.72H615.4c-.89,0-1.79,0-2.7.08-.6,0-1.17,0-1.74.08l-1.73.16a11.59,11.59,0,0,1-1.33.08,5.32,5.32,0,0,0-1.33.16,1.66,1.66,0,0,1-1.94-1.05,1,1,0,0,1,.12-1.05,2.2,2.2,0,0,1,.77-.56,21.1,21.1,0,0,1,3.55-1.21c.59-.21,1.14-.4,1.65-.56s1.06-.33,1.65-.49c.75-.21,1.52-.41,2.3-.6s1.55-.37,2.3-.53,1.5-.3,2.26-.44a21.6,21.6,0,0,1,2.25-.28,9.23,9.23,0,0,0,3.51-.81,10.15,10.15,0,0,0,3-2.1l9.11-8.3q4.51-4.11,9.11-8.23l.52-.32c.19-.11.37-.21.53-.32a1.09,1.09,0,0,0-.16-.24A1.24,1.24,0,0,1,646.88,296.92Z" transform="translate(-354.05 -243.73)"/><path class="cls-2" d="M727.2,331.59q-1.53,3.39-3.11,6.69c-1,2.21-2.16,4.41-3.34,6.61a47.77,47.77,0,0,1-3.67,6q-2.05,2.87-4.4,5.53a24.23,24.23,0,0,1-8,6.33,18.7,18.7,0,0,1-10.28,1.49,20.84,20.84,0,0,1-10.32-3.79A24.6,24.6,0,0,1,677,352a42.24,42.24,0,0,1-3-7.86,47.52,47.52,0,0,1-1.49-8.27,49.79,49.79,0,0,1-.37-6.53q0-3.22.2-6.53a55,55,0,0,1,.73-6.69,60.79,60.79,0,0,1,1.53-6.62,73.58,73.58,0,0,1,3.35-9.35,36.71,36.71,0,0,1,5.2-8.47,28.08,28.08,0,0,1,4.27-4.31,32.11,32.11,0,0,1,5.08-3.35,30.1,30.1,0,0,1,4.8-2,21.54,21.54,0,0,1,5-.93,25.49,25.49,0,0,1,5.73.32,13.14,13.14,0,0,1,5.4,2.34c.43.32.87.63,1.33.93s.93.58,1.41.85a17.56,17.56,0,0,1,4.31,3.87,41,41,0,0,1,3.35,4.83,14.69,14.69,0,0,1,1.94,5.49,18.72,18.72,0,0,1-.16,6,31.56,31.56,0,0,1-9.44,17.18Q714,325,711.72,327a49.79,49.79,0,0,1-4.76,3.67,37.9,37.9,0,0,1-7.38,3.79A25.32,25.32,0,0,1,691.4,336a6.87,6.87,0,0,0-.73.17,35.09,35.09,0,0,0,1.69,6.53,19,19,0,0,0,3.31,5.64,12.47,12.47,0,0,0,4.15,3.15,14,14,0,0,0,5,1.21,3.27,3.27,0,0,0,2-.45c.56-.35,1.14-.74,1.73-1.17a27.32,27.32,0,0,0,3.39-3.5,38.86,38.86,0,0,0,2.82-4q1.86-2.82,3.39-5.72a60.8,60.8,0,0,0,2.74-6,10.37,10.37,0,0,1,1.49-2.46,3.79,3.79,0,0,1,2.46-1.25,4.23,4.23,0,0,1,1.69.49,2.79,2.79,0,0,1,.89,1.08A2.15,2.15,0,0,1,727.2,331.59Zm-37.26-.08c.7-.11,1.33-.19,1.9-.24a8.46,8.46,0,0,0,1.65-.33,24.53,24.53,0,0,0,5.36-1.89,30.09,30.09,0,0,0,4.8-2.94c1.24-.92,2.42-1.84,3.55-2.79s2.23-1.92,3.31-2.94a23.54,23.54,0,0,0,5.32-6.93,28.76,28.76,0,0,0,2.66-8.31,9.15,9.15,0,0,0,0-3.83,8,8,0,0,0-1.77-3.43,11.89,11.89,0,0,0-6.09-4,10,10,0,0,0-7.14.85,18.28,18.28,0,0,0-5.44,4,23.38,23.38,0,0,0-3.83,5.52,42.43,42.43,0,0,0-3.71,11.05,56.81,56.81,0,0,0-.93,6.29,45,45,0,0,0-.12,6.37c0,.59.12,1.17.2,1.73S689.84,330.86,689.94,331.51Z" transform="translate(-354.05 -243.73)"/><path class="cls-2" d="M749.05,352.39c.16,1.4.3,2.72.41,4q.15,1.61.24,3.06a7.53,7.53,0,0,1-.08,2,4.64,4.64,0,0,1-1.29,2.33,3,3,0,0,1-2.42.65,6,6,0,0,1-3.67-1.73,12.57,12.57,0,0,1-2.22-3.27,9.07,9.07,0,0,1-.89-2.34c-.16-.7-.32-1.37-.48-2a19.85,19.85,0,0,1-.4-2c-.27-2.85-.56-5.67-.85-8.47s-.55-5.61-.77-8.47q-.32-3.78-.6-7.49c-.19-2.48-.26-5-.2-7.58,0-1.46.06-2.91,0-4.36s0-2.9,0-4.35q.07-1.38.12-2.7c0-.89.06-1.79.12-2.71s0-1.8,0-2.66a26.49,26.49,0,0,1,0-2.66,16.28,16.28,0,0,1,.48-3.22,4.29,4.29,0,0,1,2.3-2.87,3.81,3.81,0,0,1,3.59,0,3.52,3.52,0,0,1,1.09.85c.29.35.58.71.85,1.09a9.15,9.15,0,0,1,1.08,2.34c.25.8.47,1.64.69,2.5a45,45,0,0,1,1,6.09,53.48,53.48,0,0,1,.2,6.08c-.06,1.4-.07,2.76,0,4.08s0,2.67,0,4.07h.08c.11,1.61.16,3.21.16,4.8s0,3.18.16,4.79L749,349.09c0,.59.08,1.14.08,1.65Zm-6.21-63.05a3.66,3.66,0,0,1-1.13.32,2.94,2.94,0,0,1-1.25-.12,2.48,2.48,0,0,1-1.13-.89,4.75,4.75,0,0,1-.76-2.06,4.27,4.27,0,0,1,.12-2.29,5.2,5.2,0,0,1,.93-1.58,5.41,5.41,0,0,1,1.61-1.21c.16-.1.52-.05,1.09.16s1.14.46,1.73.73a3.84,3.84,0,0,1,1.74,1.85,6.64,6.64,0,0,1,.84,2.59,1.25,1.25,0,0,1-.36.92,4.11,4.11,0,0,1-1,.69,7.17,7.17,0,0,1-1.25.52Z" transform="translate(-354.05 -243.73)"/><path class="cls-2" d="M764.61,272.24c-.27-.05-.63-.11-1.08-.16a10.89,10.89,0,0,0-1.09-.08h-12c-.91,0-1.84,0-2.78.12a20.94,20.94,0,0,1-2.86,0,7,7,0,0,1-1.49-.16,14.34,14.34,0,0,1-1.5-.4,7.22,7.22,0,0,1-1.21-.61,13.73,13.73,0,0,0-1.21-.69,2.18,2.18,0,0,1,2.1-2c1.45-.16,2.9-.31,4.36-.44s2.87-.29,4.27-.45c2.31-.21,4.6-.37,6.85-.48s4.52-.11,6.78,0l.64,0a2.4,2.4,0,0,0,.65-.12c.1-.76.21-1.51.32-2.26s.21-1.51.32-2.26c.27-1.56.53-3,.77-4.31s.49-2.76.76-4.32c.11-.8.25-1.61.41-2.42s.29-1.61.4-2.42v-.72q-.24-3.15,2.58-3.87a10.81,10.81,0,0,1,2.7-.45,3.41,3.41,0,0,1,2.46,1,7.26,7.26,0,0,1,1.57,1.78,3.36,3.36,0,0,1,.37,2.42,12.77,12.77,0,0,0-.12,2.33c0,.81,0,1.59,0,2.34a34.4,34.4,0,0,1-.29,4.56,34.46,34.46,0,0,0-.28,4.56v3.78H779c.64,0,1.29,0,1.93.09q3.63,0,7.18.28a44,44,0,0,1,7.1,1.17,8.87,8.87,0,0,1,1.57.48l1.57.65a2.56,2.56,0,0,1,.44.36,2.23,2.23,0,0,0,.53.36,3.11,3.11,0,0,1-1.66,1.05,9,9,0,0,1-1.73.16c-1.24.06-2.43.07-3.59,0a33.9,33.9,0,0,0-3.59.12c-1.77.11-3.53.23-5.28.37s-3.5.25-5.28.36a4.21,4.21,0,0,1-.48.12,3.43,3.43,0,0,0-.65.2v1.82c0,.88,0,1.94,0,3.18s0,2.54,0,3.91,0,2.68,0,3.91,0,2.3,0,3.19v13.1c0,1.29,0,3.17.08,5.65s.12,5.26.2,8.38.18,6.37.29,9.76.25,6.63.44,9.72.37,5.88.56,8.38a44.47,44.47,0,0,0,.69,5.61c.37,1.93.79,3.87,1.25,5.8a46.57,46.57,0,0,0,1.73,5.73,5.51,5.51,0,0,1,.24,1,6.36,6.36,0,0,0,.25,1c.16.43.32.85.48,1.25a9,9,0,0,0,.56,1.17l1.25,2.18c.41.7.82,1.42,1.25,2.18a1.65,1.65,0,0,1,.21,1.65,2.31,2.31,0,0,1-1.5,1A10.82,10.82,0,0,1,781,372a21.24,21.24,0,0,1-3.67-.93,11.76,11.76,0,0,1-4.71-2.7,18.64,18.64,0,0,1-3.35-4.39,38.49,38.49,0,0,1-3.35-8.11c-.77-2.77-1.46-5.6-2.05-8.51a29.65,29.65,0,0,1-.4-4.07q-.16-2.94-.29-6.81t-.2-8.23c0-2.9-.11-5.64-.16-8.22s-.08-4.85-.08-6.82v-4.07q.07-3.06.08-6t.16-5.92c0-.65.12-1.6.2-2.86s.18-2.69.29-4.28.21-3.24.32-5,.21-3.37.32-5,.2-3,.28-4.27.15-2.22.2-2.86Z" transform="translate(-354.05 -243.73)"/></g></svg>